<?xml version="1.0" encoding="UTF-8" standalone="no"?>
<svg width="70px" height="35px" viewBox="0 0 70 35" version="1.1" xmlns="http://www.w3.org/2000/svg" xmlns:xlink="http://www.w3.org/1999/xlink" xmlns:sketch="http://www.bohemiancoding.com/sketch/ns">
    <title>4am.tw@2x</title>
    <description>Created with Sketch (http://www.bohemiancoding.com/sketch)</description>
    <defs></defs>
    <g id="Page-1" stroke="none" stroke-width="1" fill="none" fill-rule="evenodd" sketch:type="MSPage">
        <g id="4am.tw" sketch:type="MSArtboardGroup" fill="#FFFFFA">
            <g id="Imported-Layers" sketch:type="MSLayerGroup" transform="translate(5.000000, 5.000000)">
                <path d="M26.294,24.701 C25.874,24.701 25.872,24.69 25.872,24.97 L25.872,25.38 C25.872,25.66 25.644,25.889 25.364,25.889 L25.281,25.889 C25.002,25.889 24.773,25.66 24.773,25.38 L24.773,24.97 C24.773,24.69 24.783,24.701 24.504,24.701 L22.167,24.701 C21.514,24.701 21.35,24.001 21.649,23.482 L24.137,18.438 C24.36,18.012 24.591,17.877 25.018,18.034 L25.027,18.042 C25.286,18.181 25.339,18.453 25.189,18.774 L23.031,23.189 C22.825,23.562 22.865,23.646 23.316,23.646 L24.504,23.646 C24.783,23.646 24.773,23.656 24.773,23.376 L24.773,22.31 C24.773,22.031 25.002,21.802 25.281,21.802 L25.364,21.802 C25.644,21.802 25.872,22.031 25.872,22.31 L25.872,23.376 C25.872,23.656 25.874,23.646 26.294,23.646 C26.526,23.646 26.716,23.874 26.716,24.154 L26.716,24.192 C26.716,24.472 26.526,24.701 26.294,24.701" id="Fill-1" sketch:type="MSShapeGroup"></path>
                <path d="M32.22,25.889 C31.94,25.889 31.711,25.774 31.711,25.633 C31.711,25.493 31.714,25.426 31.299,25.676 C31.299,25.676 30.911,25.955 30.212,25.955 C29.512,25.955 29.046,25.789 28.702,25.445 C28.413,25.145 28.257,24.712 28.257,24.234 C28.257,23.29 28.913,22.613 30.201,22.613 L30.802,22.616 C31.55,22.571 31.729,22.197 31.744,21.973 C31.751,21.863 31.99,21.001 30.488,21.151 C29.754,21.224 29.322,21.801 28.859,21.36 L28.85,21.351 C28.646,21.159 28.663,20.866 28.887,20.699 C28.887,20.699 29.568,20.192 30.501,20.192 C32.044,20.192 32.822,20.847 32.822,22.124 L32.822,25.38 C32.822,25.66 32.593,25.889 32.313,25.889 L32.22,25.889 L32.22,25.889 Z M31.684,23.707 C31.634,23.552 31.46,23.401 31.18,23.401 L30.876,23.401 C30.596,23.401 30.148,23.466 29.88,23.546 C29.88,23.546 29.357,23.701 29.357,24.212 C29.357,24.723 29.679,25.011 30.39,25.011 C30.823,25.011 31.165,24.857 31.465,24.569 C31.631,24.402 31.674,24.19 31.674,24.19 C31.707,23.912 31.723,23.826 31.684,23.707 L31.684,23.707 Z" id="Fill-2" sketch:type="MSShapeGroup"></path>
                <path d="M41.937,25.889 C41.657,25.889 41.428,25.66 41.428,25.38 L41.428,22.966 C41.428,22.686 41.343,22.245 41.24,21.985 C41.24,21.985 40.928,21.202 40.295,21.202 C39.685,21.202 39.129,21.591 39.129,22.402 L39.129,25.38 C39.129,25.66 38.901,25.889 38.621,25.889 L38.505,25.889 C38.226,25.889 37.997,25.66 37.997,25.38 L37.997,22.966 C37.997,22.686 37.912,22.245 37.809,21.985 C37.809,21.985 37.497,21.202 36.864,21.202 C36.231,21.202 35.698,21.591 35.698,22.457 L35.698,25.38 C35.698,25.66 35.469,25.889 35.19,25.889 L35.074,25.889 C34.794,25.889 34.565,25.66 34.565,25.38 L34.565,20.767 C34.565,20.487 34.794,20.258 35.074,20.258 L35.167,20.258 C35.447,20.258 35.676,20.386 35.676,20.542 C35.676,20.697 35.865,20.696 36.097,20.539 C36.097,20.539 36.609,20.192 37.175,20.192 C37.875,20.192 38.419,20.469 38.774,21.014 C39.229,20.458 39.796,20.192 40.54,20.192 C41.117,20.192 41.628,20.381 41.961,20.703 C42.394,21.125 42.561,21.658 42.561,22.291 L42.561,25.38 C42.561,25.66 42.332,25.889 42.052,25.889 L41.937,25.889" id="Fill-3" sketch:type="MSShapeGroup"></path>
                <path d="M45.335,25.889 C45.056,25.889 44.827,25.66 44.827,25.38 L44.827,25.042 C44.827,24.763 45.056,24.534 45.335,24.534 L45.673,24.534 C45.953,24.534 46.181,24.763 46.181,25.042 L46.181,25.38 C46.181,25.66 45.953,25.889 45.673,25.889 L45.335,25.889" id="Fill-4" sketch:type="MSShapeGroup"></path>
                <path d="M50.179,25.889 C49.124,25.889 48.636,25.134 48.636,24.323 L48.636,21.733 C48.636,21.454 48.491,21.225 48.314,21.225 C48.137,21.225 47.992,21.03 47.992,20.792 C47.992,20.553 48.137,20.359 48.314,20.359 C48.491,20.359 48.636,20.13 48.636,19.85 L48.636,19.157 C48.636,18.877 48.865,18.648 49.144,18.648 L49.26,18.648 C49.54,18.648 49.768,18.877 49.768,19.157 L49.768,19.85 C49.768,20.13 49.997,20.359 50.277,20.359 L50.348,20.359 C50.628,20.359 50.857,20.553 50.857,20.792 C50.857,21.03 50.628,21.225 50.348,21.225 L50.277,21.225 C49.997,21.225 49.768,21.454 49.768,21.733 L49.768,23.759 C49.768,24.039 49.835,24.486 49.917,24.754 C49.917,24.754 49.968,24.923 50.39,24.923 C50.647,24.923 50.857,25.14 50.857,25.406 C50.857,25.671 50.628,25.889 50.348,25.889 L50.179,25.889" id="Fill-5" sketch:type="MSShapeGroup"></path>
                <path d="M58.515,25.403 C58.432,25.67 58.146,25.889 57.881,25.889 C57.615,25.889 57.325,25.672 57.236,25.407 L56.238,22.44 C56.149,22.174 56.004,22.175 55.915,22.44 L54.927,25.406 C54.838,25.672 54.546,25.889 54.277,25.889 C54.008,25.889 53.721,25.67 53.638,25.403 L52.196,20.744 C52.113,20.477 52.274,20.258 52.554,20.258 L52.736,20.258 C53.016,20.258 53.305,20.479 53.379,20.749 L54.198,23.733 C54.272,24.002 54.405,24.006 54.492,23.74 L55.484,20.741 C55.571,20.476 55.84,20.258 56.082,20.258 C56.323,20.258 56.592,20.476 56.679,20.742 L57.661,23.74 C57.748,24.006 57.88,24.002 57.954,23.733 L58.773,20.749 C58.847,20.479 59.137,20.258 59.416,20.258 L59.61,20.258 C59.89,20.258 60.05,20.477 59.967,20.744 L58.515,25.403" id="Fill-6" sketch:type="MSShapeGroup"></path>
                <path d="M17.31,6.501 L17.31,13.991 C17.31,14.066 17.27,14.066 17.25,14.065 C15.034,14.033 13.248,12.227 13.248,10.004 C13.248,7.781 15.034,5.975 17.25,5.943 C17.268,5.943 17.29,5.934 17.295,5.888 C17.3,5.836 17.297,5.801 17.297,5.744 C17.297,0.457 11.677,0.124 11.677,0.124 L0.438,11.364 C0.438,11.364 6.058,11.787 6.058,16.983 C6.058,21.373 11.677,22.603 11.677,22.603 L22.916,11.364 C22.916,11.364 17.99,10.295 17.364,6.543 C17.361,6.527 17.36,6.513 17.356,6.502 C17.337,6.435 17.31,6.459 17.31,6.501" id="Fill-7" sketch:type="MSShapeGroup"></path>
            </g>
        </g>
    </g>
</svg>