<?xml version="1.0" encoding="UTF-8" standalone="no"?>
<svg width="320px" height="48px" viewBox="0 0 320 48" version="1.1" xmlns="http://www.w3.org/2000/svg" xmlns:xlink="http://www.w3.org/1999/xlink" xmlns:sketch="http://www.bohemiancoding.com/sketch/ns">
    <title>logo</title>
    <description>Created with Sketch (http://www.bohemiancoding.com/sketch)</description>
    <defs></defs>
    <g id="Page-1" stroke="none" stroke-width="1" fill="none" fill-rule="evenodd" sketch:type="MSPage">
        <g id="logo" sketch:type="MSArtboardGroup" fill="#E4E5E3">
            <g sketch:type="MSLayerGroup" transform="translate(10.000000, 6.000000)">
                <path d="M0.164037433,0.896791444 L5.47018717,0.896791444 C13.3275401,0.896791444 19.8581551,5.04585561 19.8581551,13.5838235 C19.8581551,22.3255348 13.4635027,26.5431818 5.36791444,26.5431818 L0.164037433,26.5431818 L0.164037433,0.896791444 L0.164037433,0.896791444 Z M3.36136364,23.6177807 L4.48355615,23.6177807 C11.0141711,23.6177807 16.6604278,21.1688503 16.6604278,13.7197861 C16.6604278,6.23663102 11.0141711,3.82179144 4.48355615,3.82179144 L3.36136364,3.82179144 L3.36136364,23.6177807 L3.36136364,23.6177807 Z" id="Fill-1" sketch:type="MSShapeGroup"></path>
                <path d="M27.1030749,19.0941176 C27.1371658,21.8149733 28.9740642,24.3661765 31.8990642,24.3661765 C34.246123,24.3661765 35.5046791,23.1758021 36.6609626,21.271123 L39.2458556,22.7334225 C37.7494652,25.4887701 34.9604278,27.0874332 31.8649733,27.0874332 C27.0012032,27.0874332 24.0417112,23.4136364 24.0417112,18.7199198 C24.0417112,13.8216578 26.6610963,10.148262 31.7971925,10.148262 C36.865107,10.148262 39.2458556,13.8898396 39.2458556,18.6176471 L39.2458556,19.0941176 L27.1030749,19.0941176 L27.1030749,19.0941176 Z M36.184893,16.7811497 C35.8106952,14.4004011 34.246123,12.801738 31.7971925,12.801738 C29.4160428,12.801738 27.6473262,14.5022727 27.2731283,16.7811497 L36.184893,16.7811497 L36.184893,16.7811497 Z" id="Fill-2" sketch:type="MSShapeGroup"></path>
                <path d="M47.3755348,12.6316845 L47.4437166,12.6316845 C48.3280749,11.2367647 49.9263369,10.148262 51.6613636,10.148262 C53.7360963,10.148262 55.2324866,11.2026738 56.2532086,12.9713904 C57.2394385,11.2708556 59.1441176,10.148262 61.1510695,10.148262 C65.3346257,10.148262 66.4231283,13.4137701 66.4231283,17.018984 L66.4231283,26.5431818 L63.3621658,26.5431818 L63.3621658,17.5295455 C63.3621658,15.4889037 63.0898396,12.8695187 60.4030749,12.8695187 C57.1375668,12.8695187 56.8993316,16.2709893 56.8993316,18.7199198 L56.8993316,26.5431818 L53.8379679,26.5431818 L53.8379679,18.1074866 C53.8379679,16.032754 53.7360963,12.8695187 50.9129679,12.8695187 C47.6474599,12.8695187 47.3755348,16.2368984 47.3755348,18.7199198 L47.3755348,26.5431818 L44.3141711,26.5431818 L44.3141711,10.6247326 L47.3755348,10.6247326 L47.3755348,12.6316845" id="Fill-3" sketch:type="MSShapeGroup"></path>
                <path d="M87.444385,18.6176471 C87.444385,23.4136364 83.7028075,27.0874332 78.9409091,27.0874332 C74.1790107,27.0874332 70.4374332,23.4136364 70.4374332,18.6176471 C70.4374332,13.8216578 74.1790107,10.148262 78.9409091,10.148262 C83.7028075,10.148262 87.444385,13.8216578 87.444385,18.6176471 L87.444385,18.6176471 Z M73.4987968,18.6176471 C73.4987968,21.6108289 75.9136364,24.1624332 78.9409091,24.1624332 C81.9681818,24.1624332 84.3830214,21.6108289 84.3830214,18.6176471 C84.3830214,15.5907754 81.9681818,13.0736631 78.9409091,13.0736631 C75.9136364,13.0736631 73.4987968,15.5907754 73.4987968,18.6176471 L73.4987968,18.6176471 Z" id="Fill-4" sketch:type="MSShapeGroup"></path>
                <path d="M103.63516,15.1483957 C102.410294,13.7534759 100.913904,13.0054813 99.0770053,13.0054813 C96.0838235,13.0054813 93.7708556,15.6585561 93.7708556,18.5835561 C93.7708556,21.8490642 96.0497326,24.2302139 99.2815508,24.2302139 C101.049866,24.2302139 102.478476,23.4136364 103.63516,22.1213904 L103.63516,26.0330214 C102.240241,26.7814171 100.845722,27.0874332 99.2470588,27.0874332 C94.5529412,27.0874332 90.709492,23.4818182 90.709492,18.7199198 C90.709492,13.7875668 94.5192513,10.148262 99.4171123,10.148262 C100.845722,10.148262 102.410294,10.488369 103.63516,11.2026738 L103.63516,15.1483957" id="Fill-5" sketch:type="MSShapeGroup"></path>
                <path d="M111.050134,13.2096257 L111.152406,13.2096257 C111.900401,11.3390374 113.465374,10.148262 115.506417,10.148262 C116.390775,10.148262 117.275134,10.4546791 118.023128,10.9303476 L116.62861,13.7197861 C116.084358,13.2437166 115.472326,13.0736631 114.75762,13.0736631 C111.458422,13.0736631 111.050134,16.1350267 111.050134,18.7199198 L111.050134,26.5431818 L107.98877,26.5431818 L107.98877,10.6247326 L111.050134,10.6247326 L111.050134,13.2096257" id="Fill-6" sketch:type="MSShapeGroup"></path>
                <path d="M135.506551,26.5431818 L132.445588,26.5431818 L132.445588,24.0601604 L132.377406,24.0601604 C131.152941,25.8629679 129.247861,27.0874332 126.968984,27.0874332 C122.104813,27.0874332 119.349866,23.0398396 119.349866,18.4816845 C119.349866,14.1280749 122.240775,10.148262 126.86631,10.148262 C129.214171,10.148262 131.118449,11.3727273 132.377406,13.2778075 L132.445588,13.2778075 L132.445588,10.6247326 L135.506551,10.6247326 L135.506551,26.5431818 L135.506551,26.5431818 Z M132.615241,18.5835561 C132.615241,15.4889037 130.744652,12.8695187 127.445455,12.8695187 C124.281417,12.8695187 122.410829,15.6248663 122.410829,18.5835561 C122.410829,21.577139 124.214037,24.3661765 127.445455,24.3661765 C130.778342,24.3661765 132.615241,21.7131016 132.615241,18.5835561 L132.615241,18.5835561 Z" id="Fill-7" sketch:type="MSShapeGroup"></path>
                <path d="M152.37754,15.1483957 C151.153075,13.7534759 149.656283,13.0054813 147.819385,13.0054813 C144.826203,13.0054813 142.513636,15.6585561 142.513636,18.5835561 C142.513636,21.8490642 144.792513,24.2302139 148.023529,24.2302139 C149.792246,24.2302139 151.221257,23.4136364 152.37754,22.1213904 L152.37754,26.0330214 C150.983021,26.7814171 149.588102,27.0874332 147.98984,27.0874332 C143.295321,27.0874332 139.452273,23.4818182 139.452273,18.7199198 C139.452273,13.7875668 143.261631,10.148262 148.159893,10.148262 C149.588102,10.148262 151.153075,10.488369 152.37754,11.2026738 L152.37754,15.1483957" id="Fill-8" sketch:type="MSShapeGroup"></path>
                <path d="M154.826872,10.6247326 L158.398396,10.6247326 L163.772727,20.7264706 L168.772861,10.6247326 L172.20762,10.6247326 L159.316043,35.6590909 L155.846791,35.6590909 L162.105882,23.8219251 L154.826872,10.6247326" id="Fill-9" sketch:type="MSShapeGroup"></path>
                <path d="M200.303743,26.5431818 L197.24238,26.5431818 L197.24238,24.0601604 L197.174198,24.0601604 C195.949733,25.8629679 194.044652,27.0874332 191.766176,27.0874332 C186.901604,27.0874332 184.146658,23.0398396 184.146658,18.4816845 C184.146658,14.1280749 187.037968,10.148262 191.663503,10.148262 C194.010963,10.148262 195.915241,11.3727273 197.174198,13.2778075 L197.24238,13.2778075 L197.24238,10.6247326 L200.303743,10.6247326 L200.303743,26.5431818 L200.303743,26.5431818 Z M197.412433,18.5835561 C197.412433,15.4889037 195.541845,12.8695187 192.242246,12.8695187 C189.078209,12.8695187 187.208021,15.6248663 187.208021,18.5835561 C187.208021,21.577139 189.01123,24.3661765 192.242246,24.3661765 C195.575535,24.3661765 197.412433,21.7131016 197.412433,18.5835561 L197.412433,18.5835561 Z" id="Fill-10" sketch:type="MSShapeGroup"></path>
                <path d="M210.337299,26.5431818 L207.276337,26.5431818 L207.276337,13.4819519 L205.609893,13.4819519 L205.609893,10.6247326 L207.276337,10.6247326 L207.276337,4.53609626 L210.337299,4.53609626 L210.337299,10.6247326 L213.330481,10.6247326 L213.330481,13.4819519 L210.337299,13.4819519 L210.337299,26.5431818" id="Fill-11" sketch:type="MSShapeGroup"></path>
                <path d="M243.636497,20.0125668 L243.636497,22.8016043 L240.711497,22.8016043 L240.711497,26.5431818 L237.650134,26.5431818 L237.650134,22.8016043 L224.996791,22.8016043 L240.711497,-0.19171123 L240.711497,20.0125668 L243.636497,20.0125668 L243.636497,20.0125668 Z M237.650134,9.43395722 L237.581952,9.43395722 L230.371524,20.0125668 L237.650134,20.0125668 L237.650134,9.43395722 L237.650134,9.43395722 Z" id="Fill-12" sketch:type="MSShapeGroup"></path>
                <path d="M268.568583,26.5431818 L265.507219,26.5431818 L265.507219,24.0601604 L265.439037,24.0601604 C264.214572,25.8629679 262.309492,27.0874332 260.031016,27.0874332 C255.167246,27.0874332 252.412299,23.0398396 252.412299,18.4816845 C252.412299,14.1280749 255.30361,10.148262 259.929144,10.148262 C262.275802,10.148262 264.180882,11.3727273 265.439037,13.2778075 L265.507219,13.2778075 L265.507219,10.6247326 L268.568583,10.6247326 L268.568583,26.5431818 L268.568583,26.5431818 Z M265.677273,18.5835561 C265.677273,15.4889037 263.806684,12.8695187 260.507086,12.8695187 C257.344251,12.8695187 255.473663,15.6248663 255.473663,18.5835561 C255.473663,21.577139 257.27607,24.3661765 260.507086,24.3661765 C263.840374,24.3661765 265.677273,21.7131016 265.677273,18.5835561 L265.677273,18.5835561 Z" id="Fill-13" sketch:type="MSShapeGroup"></path>
                <path d="M277.208824,12.6316845 L277.276203,12.6316845 C278.160561,11.2367647 279.759225,10.148262 281.494251,10.148262 C283.568583,10.148262 285.065775,11.2026738 286.086497,12.9713904 C287.072727,11.2708556 288.977807,10.148262 290.983556,10.148262 C295.167513,10.148262 296.256417,13.4137701 296.256417,17.018984 L296.256417,26.5431818 L293.195053,26.5431818 L293.195053,17.5295455 C293.195053,15.4889037 292.923529,12.8695187 290.235561,12.8695187 C286.970856,12.8695187 286.73262,16.2709893 286.73262,18.7199198 L286.73262,26.5431818 L283.671257,26.5431818 L283.671257,18.1074866 C283.671257,16.032754 283.568583,12.8695187 280.745455,12.8695187 C277.480749,12.8695187 277.208824,16.2368984 277.208824,18.7199198 L277.208824,26.5431818 L274.14746,26.5431818 L274.14746,10.6247326 L277.208824,10.6247326 L277.208824,12.6316845" id="Fill-14" sketch:type="MSShapeGroup"></path>
            </g>
        </g>
    </g>
</svg>