<?xml version="1.0" encoding="UTF-8" standalone="no"?>
<svg width="320px" height="48px" viewBox="0 0 320 48" version="1.1" xmlns="http://www.w3.org/2000/svg" xmlns:xlink="http://www.w3.org/1999/xlink" xmlns:sketch="http://www.bohemiancoding.com/sketch/ns">
    <title>slogan</title>
    <description>Created with Sketch (http://www.bohemiancoding.com/sketch)</description>
    <defs></defs>
    <g id="Page-1" stroke="none" stroke-width="1" fill="none" fill-rule="evenodd" sketch:type="MSPage">
        <g id="slogan" sketch:type="MSArtboardGroup" fill="#E4E5E3">
            <g sketch:type="MSLayerGroup" transform="translate(20.000000, 16.000000)">
                <path d="M2.84324607,5.2078534 L2.81539267,5.2078534 L1.58471204,12.1756021 L0.227225131,12.1756021 L2.38146597,1.17790576 L6.0060733,9.48848168 L9.62994764,1.17790576 L11.7849215,12.1756021 L10.4274346,12.1756021 L9.19602094,5.2078534 L9.16816754,5.2078534 L6.0060733,12.3991623 L2.84324607,5.2078534" id="Fill-1" sketch:type="MSShapeGroup"></path>
                <path d="M19.9291099,8.91602094 C19.9291099,10.8892147 18.3898429,12.3991623 16.4320419,12.3991623 C14.4727749,12.3991623 12.9335079,10.8892147 12.9335079,8.91602094 C12.9335079,6.94209424 14.4727749,5.43141361 16.4320419,5.43141361 C18.3898429,5.43141361 19.9291099,6.94209424 19.9291099,8.91602094 L19.9291099,8.91602094 Z M14.1927749,8.91602094 C14.1927749,10.1474346 15.1859686,11.1963351 16.4320419,11.1963351 C17.6766492,11.1963351 18.6698429,10.1474346 18.6698429,8.91602094 C18.6698429,7.67068063 17.6766492,6.63424084 16.4320419,6.63424084 C15.1859686,6.63424084 14.1927749,7.67068063 14.1927749,8.91602094 L14.1927749,8.91602094 Z" id="Fill-2" sketch:type="MSShapeGroup"></path>
                <path d="M23.1212565,6.69141361 L23.1630366,6.69141361 C23.4708901,5.92104712 24.1144503,5.43141361 24.9537173,5.43141361 C25.3172775,5.43141361 25.6815707,5.55748691 25.9901571,5.7539267 L25.4154974,6.90031414 C25.1919372,6.70460733 24.9397906,6.63424084 24.6458639,6.63424084 C23.2891099,6.63424084 23.1212565,7.89424084 23.1212565,8.95780105 L23.1212565,12.1756021 L21.8619895,12.1756021 L21.8619895,5.6278534 L23.1212565,5.6278534 L23.1212565,6.69141361" id="Fill-3" sketch:type="MSShapeGroup"></path>
                <path d="M28.7579058,6.50963351 L28.7857592,6.50963351 C29.1779058,5.80963351 29.961466,5.43141361 30.7582199,5.43141361 C32.6060733,5.43141361 33.0810471,6.67675393 33.0810471,8.27172775 L33.0810471,12.1756021 L31.8225131,12.1756021 L31.8225131,8.42492147 C31.8225131,7.30712042 31.6685864,6.55141361 30.381466,6.55141361 C28.7579058,6.55141361 28.7579058,7.97853403 28.7579058,9.16670157 L28.7579058,12.1756021 L27.4986387,12.1756021 L27.4986387,5.6278534 L28.7579058,5.6278534 L28.7579058,6.50963351" id="Fill-4" sketch:type="MSShapeGroup"></path>
                <path d="M37.2935079,2.63287958 C37.2935079,3.10931937 36.9020942,3.4860733 36.4263874,3.4860733 C35.9506806,3.4860733 35.559267,3.10931937 35.559267,2.63287958 C35.559267,2.14324607 35.9506806,1.75256545 36.4263874,1.75256545 C36.9020942,1.75256545 37.2935079,2.14324607 37.2935079,2.63287958 L37.2935079,2.63287958 Z M35.7967539,5.6278534 L37.0560209,5.6278534 L37.0560209,12.1763351 L35.7967539,12.1763351 L35.7967539,5.6278534 Z" id="Fill-5" sketch:type="MSShapeGroup"></path>
                <path d="M41.0302618,6.50963351 L41.0581152,6.50963351 C41.4502618,5.80963351 42.233822,5.43141361 43.0313089,5.43141361 C44.8784293,5.43141361 45.3534031,6.67675393 45.3534031,8.27172775 L45.3534031,12.1756021 L44.0948691,12.1756021 L44.0948691,8.42492147 C44.0948691,7.30712042 43.9409424,6.55141361 42.653822,6.55141361 C41.0302618,6.55141361 41.0302618,7.97853403 41.0302618,9.16670157 L41.0302618,12.1756021 L39.7709948,12.1756021 L39.7709948,5.6278534 L41.0302618,5.6278534 L41.0302618,6.50963351" id="Fill-6" sketch:type="MSShapeGroup"></path>
                <path d="M53.9175916,12.0495288 C53.9175916,14.3019895 53.2740314,15.9255497 50.727644,15.9255497 C48.9091099,15.9255497 47.5934031,14.8055497 47.5655497,12.9591623 L48.8248168,12.9591623 C48.8248168,14.1341361 49.6362304,14.8055497 50.7840838,14.8055497 C52.3372775,14.8055497 52.6583246,13.7419895 52.6583246,12.3991623 L52.6583246,11.153822 L52.6304712,11.153822 C52.126911,11.8956021 51.3294241,12.3991623 50.4058639,12.3991623 C48.3908901,12.3991623 47.272356,10.734555 47.272356,8.85884817 C47.272356,7.06816754 48.4612565,5.43141361 50.3501571,5.43141361 C51.3294241,5.43141361 52.1129843,5.93570681 52.6304712,6.74712042 L52.6583246,6.74712042 L52.6583246,5.6278534 L53.9175916,5.6278534 L53.9175916,12.0495288 L53.9175916,12.0495288 Z M52.7286911,8.90209424 C52.7286911,7.62743455 51.9590576,6.55141361 50.6023037,6.55141361 C49.3005236,6.55141361 48.5308901,7.68314136 48.5308901,8.90209424 C48.5308901,10.1327749 49.2726702,11.2798953 50.6023037,11.2798953 C51.9729843,11.2798953 52.7286911,10.1884817 52.7286911,8.90209424 L52.7286911,8.90209424 Z" id="Fill-7" sketch:type="MSShapeGroup"></path>
                <path d="M63.2374869,9.79633508 L65.1689005,5.26429319 L67.0856545,9.79633508 L68.9884817,5.6278534 L70.4156021,5.6278534 L67.0856545,12.3991623 L65.1689005,8.01958115 L63.2374869,12.3991623 L59.9075393,5.6278534 L61.3346597,5.6278534 L63.2374869,9.79633508" id="Fill-8" sketch:type="MSShapeGroup"></path>
                <path d="M73.5227225,2.63287958 C73.5227225,3.10931937 73.1313089,3.4860733 72.6556021,3.4860733 C72.1798953,3.4860733 71.7884817,3.10931937 71.7884817,2.63287958 C71.7884817,2.14324607 72.1798953,1.75256545 72.6556021,1.75256545 C73.1313089,1.75256545 73.5227225,2.14324607 73.5227225,2.63287958 L73.5227225,2.63287958 Z M72.0259686,5.6278534 L73.2852356,5.6278534 L73.2852356,12.1763351 L72.0259686,12.1763351 L72.0259686,5.6278534 Z" id="Fill-9" sketch:type="MSShapeGroup"></path>
                <path d="M77.4412565,12.1756021 L76.1819895,12.1756021 L76.1819895,6.80282723 L75.4959162,6.80282723 L75.4959162,5.6278534 L76.1819895,5.6278534 L76.1819895,3.12251309 L77.4412565,3.12251309 L77.4412565,5.6278534 L78.6719372,5.6278534 L78.6719372,6.80282723 L77.4412565,6.80282723 L77.4412565,12.1756021" id="Fill-10" sketch:type="MSShapeGroup"></path>
                <path d="M81.3172775,0.030052356 L81.3172775,6.50963351 L81.3451309,6.50963351 C81.7372775,5.80963351 82.5201047,5.43141361 83.3175916,5.43141361 C85.165445,5.43141361 85.6404188,6.67675393 85.6404188,8.27172775 L85.6404188,12.1756021 L84.3818848,12.1756021 L84.3818848,8.42492147 C84.3818848,7.30712042 84.2279581,6.55141361 82.9408377,6.55141361 C81.3172775,6.55141361 81.3172775,7.97853403 81.3172775,9.16670157 L81.3172775,12.1756021 L80.0580105,12.1756021 L80.0580105,0.030052356 L81.3172775,0.030052356" id="Fill-11" sketch:type="MSShapeGroup"></path>
                <path d="M94.4846073,8.91602094 C94.4846073,10.8892147 92.9453403,12.3991623 90.9868063,12.3991623 C89.0275393,12.3991623 87.4890052,10.8892147 87.4890052,8.91602094 C87.4890052,6.94209424 89.0275393,5.43141361 90.9868063,5.43141361 C92.9453403,5.43141361 94.4846073,6.94209424 94.4846073,8.91602094 L94.4846073,8.91602094 Z M88.7482723,8.91602094 C88.7482723,10.1474346 89.741466,11.1963351 90.9868063,11.1963351 C92.2321466,11.1963351 93.2253403,10.1474346 93.2253403,8.91602094 C93.2253403,7.67068063 92.2321466,6.63424084 90.9868063,6.63424084 C89.741466,6.63424084 88.7482723,7.67068063 88.7482723,8.91602094 L88.7482723,8.91602094 Z" id="Fill-12" sketch:type="MSShapeGroup"></path>
                <path d="M97.5360209,5.6278534 L97.5360209,9.25099476 C97.5360209,10.3006283 97.8013613,11.2241885 99.0467016,11.2241885 C100.292775,11.2241885 100.558115,10.3006283 100.558115,9.25099476 L100.558115,5.6278534 L101.817382,5.6278534 L101.817382,9.39099476 C101.817382,11.1824084 100.977382,12.3991623 99.0467016,12.3991623 C97.1167539,12.3991623 96.2767539,11.1824084 96.2767539,9.39099476 L96.2767539,5.6278534 L97.5360209,5.6278534" id="Fill-13" sketch:type="MSShapeGroup"></path>
                <path d="M105.638429,12.1756021 L104.379162,12.1756021 L104.379162,6.80282723 L103.693089,6.80282723 L103.693089,5.6278534 L104.379162,5.6278534 L104.379162,3.12251309 L105.638429,3.12251309 L105.638429,5.6278534 L106.86911,5.6278534 L106.86911,6.80282723 L105.638429,6.80282723 L105.638429,12.1756021" id="Fill-14" sketch:type="MSShapeGroup"></path>
                <path d="M112.048377,1.62649215 L113.559058,1.62649215 L116.147225,6.13141361 L118.736126,1.62649215 L120.246806,1.62649215 L116.805445,7.58638743 L116.805445,12.1756021 L115.489738,12.1756021 L115.489738,7.58638743 L112.048377,1.62649215" id="Fill-15" sketch:type="MSShapeGroup"></path>
                <path d="M132.168796,6.90031414 C132.168796,10.034555 129.692775,12.3991623 126.642094,12.3991623 C123.592147,12.3991623 121.115393,10.034555 121.115393,6.90031414 C121.115393,3.8782199 123.62,1.40146597 126.642094,1.40146597 C129.664921,1.40146597 132.168796,3.8782199 132.168796,6.90031414 L132.168796,6.90031414 Z M130.853822,6.90031414 C130.853822,4.5782199 129.118848,2.63287958 126.642094,2.63287958 C124.166073,2.63287958 122.431099,4.5782199 122.431099,6.90031414 C122.431099,9.30670157 124.36178,11.1677487 126.642094,11.1677487 C128.923141,11.1677487 130.853822,9.30670157 130.853822,6.90031414 L130.853822,6.90031414 Z" id="Fill-16" sketch:type="MSShapeGroup"></path>
                <path d="M135.277382,1.62649215 L135.277382,7.85246073 C135.277382,9.57350785 135.794869,11.1677487 137.82377,11.1677487 C139.851937,11.1677487 140.370157,9.57350785 140.370157,7.85246073 L140.370157,1.62649215 L141.685131,1.62649215 L141.685131,8.30031414 C141.685131,10.6224084 140.244084,12.3991623 137.82377,12.3991623 C135.403455,12.3991623 133.961675,10.6224084 133.961675,8.30031414 L133.961675,1.62649215 L135.277382,1.62649215" id="Fill-17" sketch:type="MSShapeGroup"></path>
                <path d="M150.585759,2.63287958 C150.585759,3.10931937 150.194346,3.4860733 149.717906,3.4860733 C149.242932,3.4860733 148.851518,3.10931937 148.851518,2.63287958 C148.851518,2.14324607 149.242932,1.75256545 149.717906,1.75256545 C150.194346,1.75256545 150.585759,2.14324607 150.585759,2.63287958 L150.585759,2.63287958 Z M149.089005,5.6278534 L150.348272,5.6278534 L150.348272,12.1763351 L149.089005,12.1763351 L149.089005,5.6278534 Z" id="Fill-18" sketch:type="MSShapeGroup"></path>
                <path d="M155.693927,7.12534031 C155.54,6.80282723 155.217487,6.55141361 154.853927,6.55141361 C154.504293,6.55141361 154.168586,6.82994764 154.168586,7.19350785 C154.168586,7.76816754 154.924293,8.01958115 155.693927,8.36921466 C156.462827,8.72031414 157.204607,9.19528796 157.204607,10.2302618 C157.204607,11.4756021 156.168901,12.3991623 154.952147,12.3991623 C154.000733,12.3991623 153.035393,11.853822 152.685026,10.9302618 L153.762513,10.4406283 C154.028586,10.9302618 154.350366,11.2798953 154.952147,11.2798953 C155.48356,11.2798953 155.94534,10.9163351 155.94534,10.3563351 C155.94534,10.0067016 155.777487,9.83958115 155.48356,9.64314136 L154.252147,8.98492147 C153.525026,8.59424084 152.99288,8.23068063 152.99288,7.33424084 C152.99288,6.27068063 153.860733,5.43141361 154.924293,5.43141361 C155.72178,5.43141361 156.36534,5.86534031 156.714974,6.57853403 L155.693927,7.12534031" id="Fill-19" sketch:type="MSShapeGroup"></path>
                <path d="M170.021571,12.1756021 L168.763037,12.1756021 L168.763037,11.153822 L168.735183,11.153822 C168.23089,11.8956021 167.44733,12.3991623 166.509843,12.3991623 C164.509529,12.3991623 163.375602,10.734555 163.375602,8.85884817 C163.375602,7.06816754 164.565236,5.43141361 166.468063,5.43141361 C167.433403,5.43141361 168.216963,5.93570681 168.735183,6.71853403 L168.763037,6.71853403 L168.763037,5.6278534 L170.021571,5.6278534 L170.021571,12.1756021 L170.021571,12.1756021 Z M168.831937,8.90209424 C168.831937,7.62743455 168.063037,6.55141361 166.70555,6.55141361 C165.405236,6.55141361 164.634869,7.68314136 164.634869,8.90209424 C164.634869,10.1327749 165.376649,11.2798953 166.70555,11.2798953 C168.076963,11.2798953 168.831937,10.1884817 168.831937,8.90209424 L168.831937,8.90209424 Z" id="Fill-20" sketch:type="MSShapeGroup"></path>
                <path d="M181.987539,11.153822 L181.959686,11.153822 C181.455393,11.8956021 180.657906,12.3991623 179.735079,12.3991623 C177.719372,12.3991623 176.600105,10.734555 176.600105,8.85884817 C176.600105,7.06816754 177.789738,5.43141361 179.678639,5.43141361 C180.657906,5.43141361 181.441466,5.93570681 181.959686,6.71853403 L181.987539,6.71853403 L181.987539,0.030052356 L183.246806,0.030052356 L183.246806,12.1756021 L181.987539,12.1756021 L181.987539,11.153822 L181.987539,11.153822 Z M182.057173,8.90209424 C182.057173,7.62743455 181.287539,6.55141361 179.930052,6.55141361 C178.629738,6.55141361 177.859372,7.68314136 177.859372,8.90209424 C177.859372,10.1327749 178.601152,11.2798953 179.930052,11.2798953 C181.301466,11.2798953 182.057173,10.1884817 182.057173,8.90209424 L182.057173,8.90209424 Z" id="Fill-21" sketch:type="MSShapeGroup"></path>
                <path d="M188.171728,9.79633508 L190.103141,5.26429319 L192.019895,9.79633508 L193.922723,5.6278534 L195.349843,5.6278534 L192.019895,12.3991623 L190.103141,8.01958115 L188.171728,12.3991623 L184.84178,5.6278534 L186.268901,5.6278534 L188.171728,9.79633508" id="Fill-22" sketch:type="MSShapeGroup"></path>
                <path d="M198.456963,2.63287958 C198.456963,3.10931937 198.06555,3.4860733 197.589843,3.4860733 C197.114136,3.4860733 196.722723,3.10931937 196.722723,2.63287958 C196.722723,2.14324607 197.114136,1.75256545 197.589843,1.75256545 C198.06555,1.75256545 198.456963,2.14324607 198.456963,2.63287958 L198.456963,2.63287958 Z M196.960209,5.6278534 L198.219476,5.6278534 L198.219476,12.1763351 L196.960209,12.1763351 L196.960209,5.6278534 Z" id="Fill-23" sketch:type="MSShapeGroup"></path>
                <path d="M202.193717,6.50963351 L202.221571,6.50963351 C202.613717,5.80963351 203.397277,5.43141361 204.194764,5.43141361 C206.041885,5.43141361 206.517592,6.67675393 206.517592,8.27172775 L206.517592,12.1756021 L205.258325,12.1756021 L205.258325,8.42492147 C205.258325,7.30712042 205.104398,6.55141361 203.817277,6.55141361 C202.193717,6.55141361 202.193717,7.97853403 202.193717,9.16670157 L202.193717,12.1756021 L200.93445,12.1756021 L200.93445,5.6278534 L202.193717,5.6278534 L202.193717,6.50963351" id="Fill-24" sketch:type="MSShapeGroup"></path>
                <path d="M213.83644,11.153822 L213.808586,11.153822 C213.304293,11.8956021 212.506806,12.3991623 211.583979,12.3991623 C209.569005,12.3991623 208.449005,10.734555 208.449005,8.85884817 C208.449005,7.06816754 209.638639,5.43141361 211.528272,5.43141361 C212.506806,5.43141361 213.290366,5.93570681 213.808586,6.71853403 L213.83644,6.71853403 L213.83644,0.030052356 L215.095707,0.030052356 L215.095707,12.1756021 L213.83644,12.1756021 L213.83644,11.153822 L213.83644,11.153822 Z M213.906806,8.90209424 C213.906806,7.62743455 213.13644,6.55141361 211.778953,6.55141361 C210.478639,6.55141361 209.708272,7.68314136 209.708272,8.90209424 C209.708272,10.1327749 210.450052,11.2798953 211.778953,11.2798953 C213.150366,11.2798953 213.906806,10.1884817 213.906806,8.90209424 L213.906806,8.90209424 Z" id="Fill-25" sketch:type="MSShapeGroup"></path>
                <path d="M217.489634,0.030052356 L218.748901,0.030052356 L218.748901,12.1756021 L217.489634,12.1756021 L217.489634,0.030052356 Z" id="Fill-26" sketch:type="MSShapeGroup"></path>
                <path d="M221.995288,9.11099476 C222.009215,10.2302618 222.764921,11.2798953 223.968482,11.2798953 C224.933089,11.2798953 225.451309,10.7902618 225.926283,10.0067016 L226.990576,10.6084817 C226.374869,11.7424084 225.227749,12.3991623 223.954555,12.3991623 C221.953508,12.3991623 220.736021,10.8892147 220.736021,8.95780105 C220.736021,6.94209424 221.813508,5.43141361 223.925969,5.43141361 C226.011309,5.43141361 226.990576,6.97068063 226.990576,8.91602094 L226.990576,9.11099476 L221.995288,9.11099476 L221.995288,9.11099476 Z M225.730576,8.16031414 C225.577382,7.18104712 224.933089,6.52209424 223.925969,6.52209424 C222.947435,6.52209424 222.218848,7.22282723 222.064921,8.16031414 L225.730576,8.16031414 L225.730576,8.16031414 Z" id="Fill-27" sketch:type="MSShapeGroup"></path>
                <path d="M233.651937,11.153822 L233.622618,11.153822 C233.119058,11.8956021 232.321571,12.3991623 231.39801,12.3991623 C229.38377,12.3991623 228.264503,10.734555 228.264503,8.85884817 C228.264503,7.06816754 229.454136,5.43141361 231.342304,5.43141361 C232.321571,5.43141361 233.105131,5.93570681 233.622618,6.71853403 L233.651937,6.71853403 L233.651937,0.030052356 L234.909738,0.030052356 L234.909738,12.1756021 L233.651937,12.1756021 L233.651937,11.153822 L233.651937,11.153822 Z M233.721571,8.90209424 C233.721571,7.62743455 232.951204,6.55141361 231.59445,6.55141361 C230.29267,6.55141361 229.523037,7.68314136 229.523037,8.90209424 C229.523037,10.1327749 230.264817,11.2798953 231.59445,11.2798953 C232.965864,11.2798953 233.721571,10.1884817 233.721571,8.90209424 L233.721571,8.90209424 Z" id="Fill-28" sketch:type="MSShapeGroup"></path>
                <path d="M246.875707,11.153822 L246.848586,11.153822 C246.344293,11.8956021 245.546806,12.3991623 244.623246,12.3991623 C242.607539,12.3991623 241.488272,10.734555 241.488272,8.85884817 C241.488272,7.06816754 242.677906,5.43141361 244.567539,5.43141361 C245.546806,5.43141361 246.330366,5.93570681 246.848586,6.71853403 L246.875707,6.71853403 L246.875707,0.030052356 L248.134974,0.030052356 L248.134974,12.1756021 L246.875707,12.1756021 L246.875707,11.153822 L246.875707,11.153822 Z M246.94534,8.90209424 C246.94534,7.62743455 246.174974,6.55141361 244.81822,6.55141361 C243.517906,6.55141361 242.748272,7.68314136 242.748272,8.90209424 C242.748272,10.1327749 243.490052,11.2798953 244.81822,11.2798953 C246.189634,11.2798953 246.94534,10.1884817 246.94534,8.90209424 L246.94534,8.90209424 Z" id="Fill-29" sketch:type="MSShapeGroup"></path>
                <path d="M256.614869,12.1756021 L255.356335,12.1756021 L255.356335,11.153822 L255.327749,11.153822 C254.823455,11.8956021 254.040628,12.3991623 253.103141,12.3991623 C251.102827,12.3991623 249.968901,10.734555 249.968901,8.85884817 C249.968901,7.06816754 251.158534,5.43141361 253.061361,5.43141361 C254.026702,5.43141361 254.809529,5.93570681 255.327749,6.71853403 L255.356335,6.71853403 L255.356335,5.6278534 L256.614869,5.6278534 L256.614869,12.1756021 L256.614869,12.1756021 Z M255.426702,8.90209424 C255.426702,7.62743455 254.656335,6.55141361 253.298848,6.55141361 C251.997801,6.55141361 251.227435,7.68314136 251.227435,8.90209424 C251.227435,10.1327749 251.969215,11.2798953 253.298848,11.2798953 C254.670262,11.2798953 255.426702,10.1884817 255.426702,8.90209424 L255.426702,8.90209424 Z" id="Fill-30" sketch:type="MSShapeGroup"></path>
                <path d="M261.191623,9.79633508 L263.123037,5.26429319 L265.039791,9.79633508 L266.941885,5.6278534 L268.369738,5.6278534 L265.039791,12.3991623 L263.123037,8.01958115 L261.191623,12.3991623 L257.861675,5.6278534 L259.288796,5.6278534 L261.191623,9.79633508" id="Fill-31" sketch:type="MSShapeGroup"></path>
                <path d="M270.959372,6.50963351 L270.986492,6.50963351 C271.378639,5.80963351 272.162199,5.43141361 272.959686,5.43141361 C274.807539,5.43141361 275.283246,6.67675393 275.283246,8.27172775 L275.283246,12.1756021 L274.023246,12.1756021 L274.023246,8.42492147 C274.023246,7.30712042 273.870052,6.55141361 272.582932,6.55141361 C270.959372,6.55141361 270.959372,7.97853403 270.959372,9.16670157 L270.959372,12.1756021 L269.699372,12.1756021 L269.699372,5.6278534 L270.959372,5.6278534 L270.959372,6.50963351" id="Fill-32" sketch:type="MSShapeGroup"></path>
                <path d="M279.690681,11.5877487 C279.690681,12.0356021 279.32712,12.3991623 278.879267,12.3991623 C278.432147,12.3991623 278.068586,12.0356021 278.068586,11.5877487 C278.068586,11.153822 278.432147,10.7756021 278.879267,10.7756021 C279.32712,10.7756021 279.690681,11.153822 279.690681,11.5877487" id="Fill-33" sketch:type="MSShapeGroup"></path>
            </g>
        </g>
    </g>
</svg>