<svg width="512" height="512" viewBox="0 0 512 512" fill="none" xmlns="http://www.w3.org/2000/svg">
<rect width="512" height="512" fill="black"/>
<path fill-rule="evenodd" clip-rule="evenodd" d="M376.171 152.267V312.053C376.171 313.653 375.317 313.653 374.891 313.632C327.616 312.949 289.515 274.421 289.515 226.997C289.515 179.573 327.616 141.045 374.891 140.363C375.275 140.363 375.744 140.171 375.851 139.189C375.957 138.08 375.893 137.333 375.893 136.117C375.893 23.328 256 16.224 256 16.224L16.2347 256.011C16.2347 256.011 136.128 265.035 136.128 375.883C136.128 469.536 256 495.776 256 495.776L495.765 256.011C495.765 256.011 390.677 233.205 377.323 153.163C377.259 152.821 377.237 152.523 377.152 152.288C376.747 150.859 376.171 151.371 376.171 152.267Z" fill="#FFFFFA"/>
</svg>
